<svg id="Capa_1" enable-background="new 0 0 512 512" height="512" viewBox="0 0 512 512" width="512" xmlns="http://www.w3.org/2000/svg"><g><g><g><g><path d="m307.638 15.117h-66.897l-78.225 78.225v243.161l145.128 145.128c4.5-4.939 8.302-10.524 11.252-16.6l97.663-201.176c11.422-23.529 17.829-49.944 17.829-77.855 0-80.587-53.403-148.7-126.75-170.883z" fill="#2ed0fc"/></g></g><path d="m296.38 465.032-80.541-165.907-12.557-25.866-4.565-9.403c-11.422-23.529-17.829-49.944-17.829-77.855 0-31.875 8.362-61.795 23.002-87.697 5.596-9.902 12.111-19.216 19.428-27.827 21.933-25.812 51.076-45.304 84.319-55.359-16.381-4.955-33.752-7.617-51.75-7.617-98.583 0-178.5 79.917-178.5 178.5 0 27.912 6.406 54.327 17.829 77.855l97.663 201.176c11.341 23.362 35.294 39.468 63.008 39.468 20.507 0 38.954-8.818 51.756-22.869-4.499-4.938-8.313-10.524-11.263-16.599z" fill="#1cbbea"/></g><g><g><g><path d="m193.388 83.547c-17.104 10.457-31.382 25.08-41.435 42.453l28.935 10 25.402-10 49.598-20v-40c-22.897 0-44.295 6.417-62.5 17.547z" fill="#ffb357"/></g><path d="m255.888 66c-21.955 15.381-38.925 36.227-49.598 60l78.373 20 75.165-20c-20.775-35.899-59.605-60-103.94-60z" fill="#ffce71"/></g><g><path d="m151.951 246c10.07 17.383 24.367 31.975 41.437 42.413 18.262 11.167 39.69 17.587 62.5 17.587v-34l-49.598-26-25.402-10z" fill="#30cd9c"/><path d="m206.29 246c10.673 23.773 27.643 44.619 49.598 60 44.334 0 83.165-24.101 103.941-60l-75.165-20z" fill="#70dcba"/></g><g><path d="m225.888 146-19.598-20h-54.337c-10.214 17.651-16.065 38.141-16.065 60 0 21.927 5.864 42.395 16.063 60h54.339l19.598-20z" fill="#d4d4ff"/><path d="m375.888 186c0-21.876-5.851-42.362-16.059-60h-153.539c-8.355 18.611-12.852 39.015-12.852 60s4.497 41.389 12.852 60h153.539c10.208-17.639 16.059-38.124 16.059-60z" fill="#efedff"/></g></g><g><path d="m255.888 0c-42.548 0-82.591 13.982-115.801 40.437-3.24 2.581-3.774 7.299-1.193 10.539 2.579 3.239 7.297 3.773 10.539 1.193 30.526-24.316 67.338-37.169 106.455-37.169 126.708 0 208.6 132.946 153.925 245.58l-97.663 201.176c-10.635 21.9-32.761 35.244-56.262 35.244-24.15 0-45.708-13.505-56.262-35.244l-97.663-201.176c-29.639-61.058-20.658-136.038 26.585-188.712 2.766-3.084 2.508-7.825-.575-10.591-3.085-2.767-7.826-2.508-10.591.575-51.55 57.474-61.057 139.058-28.913 205.278l97.663 201.176c12.886 26.544 40.266 43.694 69.756 43.694 29.244 0 56.622-16.639 69.756-43.693l97.663-201.176c59.797-123.189-30.285-267.131-167.419-267.131z"/><path d="m185.939 337.06v12c0 4.143 3.357 7.5 7.5 7.5s7.5-3.357 7.5-7.5v-12c0-4.143-3.357-7.5-7.5-7.5s-7.5 3.357-7.5 7.5z"/><path d="m318.336 329.56c-4.143 0-7.5 3.357-7.5 7.5v12c0 4.143 3.357 7.5 7.5 7.5s7.5-3.357 7.5-7.5v-12c0-4.143-3.357-7.5-7.5-7.5z"/><path d="m266.698 343.776c-5.724 6.568-15.9 6.562-21.619 0-2.721-3.124-7.459-3.448-10.581-.728-3.123 2.721-3.449 7.459-.728 10.581 11.701 13.429 32.545 13.418 44.236 0 2.722-3.122 2.396-7.86-.728-10.581s-7.86-2.396-10.58.728z"/><path d="m337.093 284.292c29.42-24.328 46.294-60.153 46.295-98.292 0-70.304-57.196-127.5-127.5-127.5s-127.5 57.196-127.5 127.5 57.196 127.5 127.5 127.5c19.007 0 37.304-4.09 54.382-12.155 3.745-1.769 5.348-6.238 3.579-9.984-1.77-3.746-6.237-5.348-9.985-3.578-15.059 7.111-31.2 10.718-47.976 10.718-36.727 0-69.397-17.692-89.942-45h179.946c-5.283 7.03-11.421 13.496-18.357 19.231-3.192 2.64-3.641 7.367-1.001 10.56 2.64 3.192 7.369 3.639 10.559 1zm-81.205-210.792c36.727 0 69.397 17.692 89.942 45h-179.884c20.545-27.308 53.216-45 89.942-45zm-99.472 165c-8.311-15.683-13.028-33.55-13.028-52.5s4.717-36.817 13.028-52.5h198.944c8.311 15.683 13.028 33.55 13.028 52.5 0 18.577-4.547 36.529-12.981 52.5z"/><path d="m283.383 186c0-4.13-3.359-7.5-7.5-7.5h-1.889l1.339-1.34c1.42-1.41 2.2-3.3 2.2-5.3s-.78-3.89-2.2-5.3c-1.41-1.42-3.3-2.2-5.3-2.2-2.01 0-3.89.78-5.3 2.2l-1.351 1.35v-1.91c0-4.13-3.359-7.5-7.489-7.5-4.141 0-7.5 3.37-7.5 7.5v1.901l-1.341-1.341c-1.42-1.42-3.3-2.2-5.31-2.2-2 0-3.88.78-5.3 2.2-2.92 2.92-2.92 7.68 0 10.6l1.34 1.34h-1.89c-4.141 0-7.5 3.37-7.5 7.5 0 4.14 3.359 7.5 7.5 7.5h1.89l-1.34 1.34c-1.42 1.42-2.2 3.3-2.2 5.31 0 2 .78 3.88 2.2 5.3s3.3 2.2 5.3 2.2c2.01 0 3.89-.78 5.31-2.2l1.341-1.342v1.892c0 4.14 3.359 7.5 7.5 7.5 4.13 0 7.489-3.36 7.489-7.5v-1.9l1.351 1.35c1.41 1.42 3.3 2.2 5.3 2.2s3.89-.78 5.3-2.2c1.42-1.42 2.2-3.3 2.2-5.31 0-2-.78-3.88-2.2-5.3l-1.34-1.34h1.89c4.14 0 7.5-3.361 7.5-7.5z"/></g></g></svg>